/* XPM */
static char * font_xpm[] = {
"475 14 3 1",
" 	c None",
".	c #000000",
"+	c #FFFFFF",
".......................+...................................................................................................................................................................................................................................................................................................................................................................................................................................................................",
".......+...+.+........++..............+....+..+...................................++...+....++..++++...+..++++..++..++++..++...++............................++...++...++..+++...++..+++..++++.++++..++..+..+.+++.....+.+..+.+....+..+.+..+..++..+++...++..+++...++...+++.+..+.+..+.+..+.+..+.+..+.++++.+++.......+++...+........+.........+............+........+.......+.....+......+.+....++.......................................+....................................+..+...+........",
".......+...+.+..+.+..++++.+.....+.....+....+..+..................................++++..+...++++.++++...+..++++.++++.++++.++++.++++..........................++++.++++.++++.++++.++++.++++.++++.++++.++++.+..+.+++.....+.+..+.+....++++.+..+.++++.++++.++++.++++.++++..+++.+..+.+..+.+..+.+..+.+..+.++++.+++.......+++...+........+.........+............+.......+++......+.....+......+.+....++.......................................+...................................++..+...++....+.+",
".......+...+.+..+.+..+.++.+..+.+++...++...++..++...+.+...+.....................+.+..+.++...+..+....+..++..+....+..+....+.+..+.+..+..............+......+....+..+.+..+.+..+.+..+.+..+.+..+.+....+....+..+.+..+..+......+.+.++.+....++++.+..+.+..+.+..+.+..+.+..+.+..+...+..+..+.+..+.+..+.+..+.+..+....+.+....+......+..+++.......++........+............+.......+.+......+..............+.....+.......................................+...................................+...+....+...++++",
".......+...+.+.+++++.+.+..+..+.+.+...+....+....+...+++...+.....................+.+..+.++......+...++..++..+....+.......+.+..+.+..+.++....++....++.++++.++...+..+.+..+.+..+.+..+.+..+.+..+.+....+....+..+.+..+..+......+.+.+..+....++++.++.+.+..+.+..+.+..+.+..+.+......+..+..+.+..+.+..+.+.++.+..+...++.+....+......+..+.+........+........+............+.......+.+......+..............+.....+.......................................+...................................+...+....+...+.+.",
".......+...+.+.+++++.+++....++.+.+..++....+....+....+....+....................++.+.++..+.....++..++..+++..+++..+.+....++.++++.+..+.++....++...++..++++..++.....+.+..+.+..+.+.++.+....+..+.+....+....+....+..+..+......+.+++..+....++++.++.+.+..+.+..+.+..+.+..+.++.....+..+..+.+..+.+..+.+++..++.+...+..+....++.....+..+.+........++...++..+++...++...+++..++...+....++..+++..++......+.+.+...+....++..+.+...++..+++...+++.+.+...++..+++..+..+.+..+.+..+.+..+.+..+.++++...+...+....+.......",
".......+........+.+...++....+..+++..+.....+....+...+++..+++.......+++.........+..++++..+....++...+++.+.+..++++.++++...+...++..+.++.++....++..++..........++...++.+.++.+..+.+++..+....+..+.+++..+++..+....++++..+......+.++...+....+..+.++++.+..+.+..+.+..+.+..+..++....+..+..+.+.++.+..+..++...+++..++..+.....+.....+..............+..++++.++++.++++.++++.++++..+...++++.++++.++......+.+++...+....++..++++.++++.++++.++++.++++.++++.+++..+..+.+..+.+..+.+..+.+..+.++++..++...+....++......",
".......+........+.+...+++..++...+...+.....+....+...+++..+++.......+++........++..++.+..+....+......+.+.+.....+.++.+..++..++++.++++...........++..........++..++..+.++.++++.+++..+....+..+.+++..+++..+.++.++++..+......+.++...+....+..+.++++.+..+.++++.+..+.++++...++...+..+..+.+.+..+..+..+++...+...+...+.....++....+..............+..+..+.+..+.+..+.+..+.+..+.+++..+..+.+..+..+......+.++....+...++++.++.+.+..+.+..+.+..+.++.+.+.....+...+..+.+..+.+..+.+.++.+..+...++..++...+....++......",
".......+.......+++++..+.+..+...+++........+....+....+....+...................+...+..+..+...++......+.++++....+.+..+..+...+..+..+.+.++....++...++..++++..++...+...+.+..++++.+.++.+....+..+.+....+....+.++.+..+..+......+.+++..+....+..+.+.++.+..+.+++..+..+.+++.....+...+..+..+.+++..++++.++.+..++..++...+......+....+.................+..+.+..+.+....+..+.++++.+++..+..+.+..+..+......+.++....+...++++.+..+.+..+.+..+.+..+.+....+++...+...+..+.+..+.+..+.+++..++.+..++....+...+....+.......",
"...............+++++..+.+.++...+.+........+....+...+++...+....++.......++...++...+..+..+...+.......+.++++....+.+..+..+...+..+....+.++....++....++.++++.++........+....+..+.+..+.+..+.+..+.+....+....+..+.+..+..+...+..+.+.+..+....+..+.+.++.+..+.+....++.+.+.+.....+...+..+..+.++...++++.+..+..+...+....+......++...+.................+..+.+..+.+....+..+.+++...+...++++.+..+..+......+.+++...+...+..+.+..+.+..+.++++.++++.+.....+++..+...+..+.+.++.++++..+++..+++.++.....+...+....+.......",
"................+.+..++.+.+..+.+.+........++..++...+.+...+....++.......++...+....+..+..+...+....+..+...+..+..+.+..+..+...+..+.+..+.++....+......+......+.........+....+..+.+..+.+..+.+..+.+....+....+..+.+..+..+...+..+.+.++.+....+..+.+..+.+..+.+....++.+.+.++.+..+...+..+..+.++...++++.+..+..+...+....+.......+...+.................+.++.+..+.+..+.+..+.+.....+....+++.+..+..+...+..+.+.+...+...+..+.+..+.+..+.+++...+++.+.......+..+...+..+.+++..++++.++.+...+..+......+...+....+.......",
".......+........+.+..++++.+..+.++++........+..+...............+........++...+....++++.+++..++++.++++...+..++++.++++..+...++++.++++......++...................+...+++..+..+.++++.++++.++++.++++.+....++++.+..+.+++..++++.+..+.++++.+..+.+..+.++++.+....++++.+..+.++++...+..++++.+....++++.+..+..+...++++.+++.....+.+++.......++++......++++.++++.++++.++++.++++..+......+.+..+.+++..+..+.+.++.+++..+..+.+..+.++++.+.......+.+....++++..+++.++++.++...++++.+..+...+..++++...++..+...++.......",
".......+..............++.....+..+.+........+..+..............++........++.........++..+++..++++..++....+...++...++...+....++...++.......+....................+....++..+..+.+++...++..+++..++++.+.....+++.+..+.+++...++..+..+.++++.+..+.+..+..++..+.....+++.+..+..++....+...++..+....+..+.+..+..+...++++.+++.......+++.......++++.......+.+.+++...++...+++..++...+...++++.+..+.+++..++++.+..+.+++..+..+.+..+..++..+.......+.+.....++....++..++..+....+..+.+..+.+++..++++....+..+...+........",
"......................+......................................+...........................................................................................................................................................................................+...........................................................................................................++.............++...........................+.......+....................................++..........................."};
